<svg xmlns="http://www.w3.org/2000/svg" width="220.786" height="84.177" viewBox="0 0 58.416 22.272"><path stroke-opacity=".814" stroke="#4db24d" opacity=".654" stroke-width=".485" transform="matrix(.82565 0 0 .82495 28.855 -111.364)" paint-order="fill stroke markers" stroke-linejoin="round" stroke-linecap="round" fill="none" class="dcg-svg-curve" d="M-35 153.048v0l.032-6.689.04-11.003.047 26.637.042-5.243.013-21.394.04 7.942.064 18.695.012-26.637.027 26.637h.04l.037-5.483.045-21.154.033 26.637.026-5.464.028-21.173.027 26.637.049-26.637.038 26.637.013-26.637.026 6.616.023 20.021.016-26.637.026 26.637.014-26.637.067 26.637.01-26.637.022 26.637.055-18.727.07 18.727.008-19.988.039 19.988.034-26.637h.027l.069 26.637.012-22.537.053 22.537.025-2.476.028 2.476.064-26.637h.01l.016 26.637.062-26.637.053 23.516.027 3.121.05-12.646.033 12.646.02-21.583.032-5.054.02 11.732.012-11.732.04 26.637.027-26.637.026 26.637.009-26.637.04 9.316.006 17.321.05-26.637.051 26.637.077-26.637.05 3.058.052 6.621.007 16.958.07-20.225.066 20.225.012-24.873.063-1.764.04 18.012.04 8.625.038-6.259.012-20.378.04 5.406.013 21.231.055-26.637.01 14.807.009 11.83.058-26.637.01 14.366.01 12.271.062-26.637.032 13.577.033 13.06.023-26.637v0l.069 26.637.024-26.637.024 26.637.025-26.637.025 26.637.025-26.637.026 26.637.027-26.637.027 26.637.027-26.637.028 26.637.028-26.637.03 26.637.028-26.637.03 26.637.031-26.637.031 26.637.032-26.637.032 26.637.033-26.637.034 26.637.034-26.637.035 26.637.035-26.637.037 26.637.037-26.637.038 26.637.039-26.637.04 26.637.04-26.637.04 26.637.043-26.637.043 26.637.044-26.637.046 26.637.046-26.637.047 26.637.048-26.637.015 5.264.035 21.373.05-26.637.053 26.637.053-26.637.016 5.4.038 21.237.014-3.596.042-23.041.058 26.637.059-26.637.06 26.637.014-3.037.048-23.6.064 26.637.017-4.27.049-22.367.067 26.637.014-2.476.056-24.161.021 5.83.05 20.807.073-26.637.076 26.637.078-26.637.08 26.637.083-26.637.027 6.156.058 20.481.02-3.115.068-23.522.091 26.637.022-3.421.072-23.216.031 6.403.052 18.933.014 1.301.064-18.938.036-7.7.015 1.41.09 25.228.014-1.266.093-25.371.037 6.673.074 19.964.03-4.007.086-22.63.017 1.335.103 25.302.026-2.976.098-23.661.032 3.86.097 22.777.032-3.64.103-22.997.027 2.458.112 24.18.017-.89.052-11.42.052-12.462.025-1.866.027 2.03.125 24.607.03-2.41.128-24.227.027 1.835.138 24.802.018-.708.052-8.802.077-15.774.026-1.353.026 1.428.078 15.276.052 8.768.024 1.165.027-1.38.078-14.438.084-10.82.02.65.051 7.174.104 17.946.023.868.029-1.259.052-7.609.103-16.93.024-.84.028 1.088.052 6.927.103 17.004.036 1.62.016-.35.052-5.216.13-19.864.032-1.208.02.454.051 5.067.155 20.872.016.244.036-1.392.078-10.029.104-13.893.037-1.323.014.197.052 3.723.181 22.296.023.421.03-.737.051-4.455.181-21.054.023-.391.03.638.05 3.982.208 21.88.014.137.038-.937.052-4.037.207-21.304.024-.36.028.445.051 3.094.13 14.63.078 6.882.055 1.587.022-.27.052-2.526.104-10.423.13-11.961.055-1.457.022.214.052 2.182.077 6.678.156 14.88.052 2.311.03.372.021-.189.052-1.921.078-5.977.181-16.13.052-2.068.031-.352.02.146.053 1.637.077 5.266.233 18.374.063 1.214.015-.066.052-1.258.077-4.458.285-20.18.05-.675.028.196.052 1.409.078 4.27.284 19.471.052 1.163.024.128.028-.178.052-1.23.078-3.741.336-20.666.052-.788.013-.034.039.284.052 1.246.077 3.465.182 11.86.13 7.13.077 2.232.05.42.027-.12.052-.88.078-2.753.13-7.22.207-11.897.103-3.201.064-.566.014.026.052.556.077 2.1.104 4.661.337 17.099.077 1.763.062.432.016-.03.052-.497.078-1.807.103-4.028.415-18.702.077-1.322.051-.251.027.066.052.506.077 1.633.104 3.537.207 9.506.181 7.509.104 2.711.078 1.012.045.157.032-.083.052-.464.078-1.414.103-3.031.182-7.268.259-10.151.13-3.11.077-.922.055-.194.023.031.051.31.078 1.063.104 2.402.155 5.148.389 13.811.13 2.726.077.876.052.248.02.022.031-.047.052-.291.078-.915.103-2.022.156-4.361.518-16.06.13-2.115.077-.652.052-.166.014-.008.038.056.051.259.078.766.104 1.668.155 3.624.285 8.443.259 7.073.155 2.945.104 1.213.078.479.06.111.017-.01.052-.14.078-.51.103-1.208.13-2.248.181-4.175.596-14.645.155-2.303.104-.94.078-.37.06-.088.017.007.052.104.078.39.103.929.13 1.754.181 3.344.31 7.043.337 7.31.182 2.972.155 1.746.104.702.077.274.06.063.018-.006.052-.082.078-.298.103-.71.13-1.348.155-2.198.233-4.158.7-13.167.18-2.345.156-1.394.104-.586.077-.253.052-.08.032-.013.02.005.052.062.077.221.104.528.13 1.009.155 1.666.207 2.846.31 5.096.519 8.523.233 3.035.181 1.788.156 1.072.13.549.077.176.052.054.028.008.023-.005.052-.048.078-.163.104-.387.129-.739.155-1.23.208-2.14.259-3.276 1.061-14.235.208-1.904.18-1.25.156-.738.13-.37.077-.117.052-.032.023-.003.03.006.05.037.079.12.103.279.13.528.155.883.181 1.338.233 2.129.311 3.358 1.114 12.553.259 2.163.207 1.364.181.9.156.541.13.288.103.121.052.026.029.004.022-.002.052-.022.078-.076.103-.182.13-.35.155-.592.182-.913.233-1.483.285-2.203.362-3.242 1.217-11.26.311-2.263.26-1.541.232-1.088.181-.637.156-.397.13-.224.103-.11.078-.043.058-.01.02.003.051.013.078.048.103.115.13.224.155.382.182.595.207.861.259 1.318.31 1.88.389 2.69.673 5.101.674 4.968.414 2.689.337 1.87.285 1.32.259.974.233.681.181.4.155.25.13.144.103.073.078.03.052.01h.052l.052-.01.077-.032.104-.073.13-.14.155-.238.181-.371.207-.54.233-.746.285-1.09.337-1.505.414-2.11.57-3.207 1.424-8.155.467-2.324.388-1.702.337-1.272.31-.992.285-.748.26-.541.207-.337.18-.223.156-.14.13-.08.103-.04.078-.016.052-.004h.052l.051.006.078.019.104.042.13.08.154.138.182.214.207.313.233.434.259.58.31.82.363 1.107.415 1.436.492 1.891.673 2.804 1.839 7.774.57 2.141.492 1.661.44 1.314.389 1.012.362.81.31.59.286.451.259.338.233.244.207.17.181.112.156.07.13.038.103.02.077.006.056.001h.048l.052-.005.078-.01.103-.024.13-.043.155-.073.181-.113.207-.165.234-.23.259-.31.284-.402.337-.553.363-.682.414-.879.466-1.099.544-1.406.673-1.88.959-2.834 1.838-5.458.777-2.135.648-1.644.57-1.322.518-1.09.492-.928.44-.739.414-.612.389-.5.362-.402.337-.317.31-.244.286-.183.259-.133.233-.093.207-.061.155-.033.13-.02.103-.01.104-.004.06-.001h.07l.077.005.104.009.13.018.155.03.18.05.208.072.233.102.26.139.284.182.31.233.337.29.389.383.414.46.467.578.517.709.57.852.648 1.049.75 1.303.933 1.713 1.347 2.58 2.227 4.268 1.062 1.928.88 1.507.803 1.287.725 1.081.674.93.621.79.596.694.57.605.026.026"/><path d="M58.416 0H0v22.272h58.416z" fill-opacity=".118" fill="#4db24d" overflow="visible" color="#000"/></svg>